<svg width="112" height="23" viewBox="0 0 112 23" fill="none" xmlns="http://www.w3.org/2000/svg">
<path d="M33.8534 10.1401C33.8534 10.1401 32.9765 11.3183 31.6182 11.8115C31.6165 11.8115 31.6165 11.8132 31.6148 11.8132V11.9125C31.6249 13.4627 31.4263 16.9788 29.5698 18.9952C28.6541 19.9882 27.4574 20.478 25.914 20.4932C24.3705 20.478 23.1721 19.9899 22.2582 18.9952C20.4017 16.9788 20.203 13.4627 20.2131 11.9125V11.8132C20.2115 11.8132 20.2115 11.8115 20.2098 11.8115C18.8515 11.3183 17.9746 10.1401 17.9746 10.1401C17.919 10.6451 17.855 11.4193 17.8719 12.3619C17.9022 13.9222 18.0099 17.8305 20.5296 20.574C21.8929 22.0585 23.7057 22.8159 25.914 22.8328C28.1223 22.8159 29.935 22.0585 31.2984 20.574C33.818 17.8305 33.9258 13.9222 33.9561 12.3619C33.9746 11.4193 33.9106 10.6451 33.8534 10.1401Z" fill="#409EFF"/>
<mask id="mask0_41_14272" style="mask-type:alpha" maskUnits="userSpaceOnUse" x="17" y="5" width="9" height="7">
<path d="M20.2348 9.51226C19.4319 9.81691 18.6678 10.0138 17.9727 10.1418C17.9727 10.1418 18.8479 11.32 20.2079 11.8131C22.3455 11.1365 24.2845 10.1788 25.9121 8.71613V5.41211C24.887 6.63576 23.044 8.4502 20.2348 9.51226Z" fill="#409EFF"/>
</mask>
<g mask="url(#mask0_41_14272)">
<path d="M25.9121 5.41211H17.9727V11.8131H25.9121V5.41211Z" fill="#409EFF"/>
</g>
<mask id="mask1_41_14272" style="mask-type:alpha" maskUnits="userSpaceOnUse" x="25" y="5" width="9" height="7">
<path d="M25.9121 5.4126V8.71662C27.5397 10.1793 29.4787 11.137 31.6163 11.8136C32.9746 11.3205 33.8515 10.1422 33.8515 10.1422C33.1564 10.0143 32.3939 9.8174 31.5894 9.51275C28.7785 8.45068 26.9371 6.63625 25.9121 5.4126Z" fill="#409EFF"/>
</mask>
<g mask="url(#mask1_41_14272)">
<path d="M33.8515 5.4126H25.9121V11.8136H33.8515V5.4126Z" fill="#409EFF"/>
</g>
<path d="M13.2195 9.08565C11.7619 7.77279 9.89692 7.05408 7.92596 7.05408C3.55481 7.05408 0 10.6106 0 14.98C0 19.3512 3.5565 22.906 7.92596 22.906C12.2971 22.906 15.8519 19.3495 15.8519 14.98V0H13.2195V9.08565ZM7.92427 20.2752C5.00569 20.2752 2.63076 17.9003 2.63076 14.98C2.63076 12.0615 5.00569 9.68653 7.92427 9.68653C10.8429 9.68653 13.2178 12.0615 13.2178 14.98C13.2195 17.9003 10.8445 20.2752 7.92427 20.2752Z" fill="white"/>
<path d="M67.3543 10.9195L67.6472 11.204L69.3943 9.39794L69.263 9.27171C68.2027 8.24835 66.745 7.0752 64.8549 7.0752C63.6228 7.0752 62.5843 7.47578 61.7697 8.2635C60.9516 9.05626 60.5376 10.0628 60.5376 11.2545C60.5376 13.9256 62.6483 15.0415 64.3432 15.9387C65.1242 16.351 65.8614 16.7415 66.262 17.2128C66.9992 18.0998 66.6794 19.1703 65.9809 19.7695C65.0148 20.5993 63.335 20.6414 61.7612 18.8673L61.4549 18.5206L59.7734 20.431L59.866 20.5505C61.0375 22.0535 62.7089 22.88 64.4172 22.88C64.9963 22.88 65.5786 22.7857 66.1458 22.5905C68.0512 21.9357 69.2361 20.2812 69.2361 18.2749C69.2361 15.7687 67.314 14.5635 65.5113 13.6294L65.5046 13.626C64.4425 13.079 63.7457 12.6077 63.4326 12.224C62.8317 11.5052 62.862 10.6872 63.5083 10.088C64.2506 9.40299 65.6476 9.26329 67.3543 10.9195Z" fill="white"/>
<path d="M84.8624 7.62389V7.44211H82.1727V7.62389C82.1727 8.7617 82.1744 9.77664 82.1761 10.6805C82.1845 15.3243 82.1879 17.063 81.9186 17.8675C81.412 19.3706 79.9375 20.3216 78.1618 20.2913C76.3793 20.261 74.9318 19.2595 74.4757 17.7413C74.2131 16.824 74.2165 15.1796 74.2249 10.7832C74.2266 9.85912 74.2283 8.8122 74.2283 7.62221V7.44043H71.5773V7.62221C71.5773 8.76507 71.5723 9.80189 71.5689 10.7158C71.547 15.6912 71.5386 17.7497 72.3011 19.4295C72.9979 20.9629 74.2485 22.0434 75.9148 22.5551C76.6554 22.7823 77.4262 22.88 78.1752 22.88C79.6497 22.88 81.0349 22.4979 81.9068 21.9643C82.8931 21.3618 83.6438 20.5151 84.1336 19.4497C84.8961 17.7935 84.8893 15.8831 84.8674 10.7781C84.8658 9.8507 84.8624 8.79536 84.8624 7.62389Z" fill="white"/>
<path d="M95.9292 9.6824V7.0752H95.7474C92.7598 7.0752 90.7603 7.68954 89.4575 9.00745C88.1228 10.3573 87.5 12.4512 87.5 15.5987V22.5063H90.1897V15.5936C90.1223 13.2322 90.6879 11.5322 91.8678 10.5408C93.4685 9.19596 95.6902 9.6319 95.7121 9.63695L95.9292 9.6824Z" fill="white"/>
<path d="M104.074 7.05469C99.7033 7.05469 96.1484 10.6112 96.1484 14.9806C96.1484 19.3518 99.7049 22.9066 104.074 22.9066C107.282 22.9066 110.154 20.9895 111.393 18.0238L111.497 17.773H108.57L108.516 17.8555C107.532 19.3703 105.872 20.2758 104.074 20.2758C101.156 20.2758 98.7809 17.9009 98.7809 14.9806C98.7809 12.0621 101.156 9.68713 104.074 9.68713C106.31 9.68713 108.276 11.069 109.041 13.1511H100.759V15.7835H100.94C101.021 15.7835 108.568 15.7869 109.43 15.7886H111.958L111.972 15.6219C111.99 15.388 112 15.1793 112 14.9823C112 10.6112 108.444 7.05469 104.074 7.05469Z" fill="white"/>
<path d="M56.4445 7.44141L52.4269 17.4679L47.3942 7.44141H46.455L41.4241 17.4679L37.4047 7.44141H34.5703L40.6061 22.5056H41.8415L46.9246 12.3747L52.0077 22.5056H53.2432L59.2806 7.44141H56.4445Z" fill="white"/>
</svg>
