<svg width="50" height="49" viewBox="0 0 50 49" fill="none" xmlns="http://www.w3.org/2000/svg">
<path fill-rule="evenodd" clip-rule="evenodd" d="M33.6875 19.0488C33.6875 14.3467 29.798 10.535 25 10.535C20.202 10.535 16.3125 14.3467 16.3125 19.0488C16.3125 23.7508 20.202 27.5625 25 27.5625C29.798 27.5625 33.6875 23.7508 33.6875 19.0488ZM30.5625 19.0488C30.5625 16.0381 28.0721 13.5975 25 13.5975C21.9279 13.5975 19.4375 16.0381 19.4375 19.0488C19.4375 22.0594 21.9279 24.5 25 24.5C28.0721 24.5 30.5625 22.0594 30.5625 19.0488ZM46.875 24.5C46.875 12.6604 37.0812 3.0625 25 3.0625C12.9188 3.0625 3.125 12.6604 3.125 24.5C3.125 36.3396 12.9188 45.9375 25 45.9375C37.0812 45.9375 46.875 36.3396 46.875 24.5ZM43.75 24.5C43.75 14.3518 35.3553 6.125 25 6.125C14.6447 6.125 6.25 14.3518 6.25 24.5C6.25 28.2658 7.40596 31.767 9.3891 34.6815C14.1412 32.0843 19.42 30.625 24.9999 30.625C30.5799 30.625 35.8587 32.0843 40.6109 34.6816C42.594 31.7671 43.75 28.2658 43.75 24.5ZM24.9999 33.6875C20.1651 33.6875 15.5641 34.9052 11.3648 37.113C14.7833 40.6609 19.6278 42.875 25 42.875C30.3722 42.875 35.2166 40.6609 38.6351 37.113C34.4359 34.9052 29.8348 33.6875 24.9999 33.6875Z" fill="white"/>
</svg>
